<svg id="Attachment_Icon" data-name="Attachment Icon" xmlns="http://www.w3.org/2000/svg" width="17.366" height="19.307" viewBox="0 0 17.366 19.307">
  <path id="Fill_501" data-name="Fill 501" d="M15.833,1.355a5.11,5.11,0,0,0-7.12.186L.737,9.518A.8.8,0,1,0,1.869,10.65L9.881,2.638A3.479,3.479,0,0,1,14.6,2.4a3.4,3.4,0,0,1,.168,4.966l-9.76,9.758a2,2,0,1,1-2.828-2.829l9.192-9.2a.6.6,0,1,1,.848.849L3.857,14.312a.8.8,0,0,0,1.132,1.131l8.368-8.369A2.2,2.2,0,0,0,13.2,3.819a2.264,2.264,0,0,0-3.02.21L1.053,13.161a3.6,3.6,0,1,0,5.092,5.091L15.9,8.494a5,5,0,0,0-.072-7.139" fill="#b8c5d3"/>
</svg>
