<svg xmlns="http://www.w3.org/2000/svg" width="22.38" height="22.38" viewBox="0 0 22.38 22.38">
  <g id="Group_1106" data-name="Group 1106" transform="translate(1 1)">
    <path id="Path" d="M0,10.19A10.19,10.19,0,0,1,10.19,0h0A10.19,10.19,0,0,1,20.38,10.19v6.485a7.3,7.3,0,0,1-.067,1.412,2.911,2.911,0,0,1-2.226,2.226,7.26,7.26,0,0,1-1.413.067H10.19A10.19,10.19,0,0,1,0,10.19Z" fill="none" stroke="#fff" stroke-miterlimit="10" stroke-width="2"/>
    <path id="Path-2" data-name="Path" d="M0,.5H8.734" transform="translate(5.823 8.234)" fill="none" stroke="#fff" stroke-linecap="round" stroke-linejoin="round" stroke-miterlimit="10" stroke-width="2"/>
    <path id="Path-3" data-name="Path" d="M0,.5H4.367" transform="translate(10.19 14.057)" fill="none" stroke="#fff" stroke-linecap="round" stroke-linejoin="round" stroke-miterlimit="10" stroke-width="2"/>
  </g>
</svg>
