<svg xmlns="http://www.w3.org/2000/svg" width="26" height="26" viewBox="0 0 26 26">
  <g id="Group_1124" data-name="Group 1124" transform="translate(-175 -679.5)">
    <path id="checked" d="M0,13V8A7.708,7.708,0,0,1,2.343,2.343,7.708,7.708,0,0,1,8,0H18a7.708,7.708,0,0,1,5.657,2.343A7.708,7.708,0,0,1,26,8V18a8,8,0,0,1-8,8H8a7.708,7.708,0,0,1-5.657-2.343A7.708,7.708,0,0,1,0,18Z" transform="translate(175 679.5)" fill="#0683ff"/>
    <path id="check-2" d="M3.538,9.189.369,6a1.283,1.283,0,0,1,0-1.8,1.263,1.263,0,0,1,1.793,0L4.435,6.487,10.511.373a1.263,1.263,0,0,1,1.793,0,1.282,1.282,0,0,1,0,1.8L5.332,9.189a1.262,1.262,0,0,1-1.793,0Z" transform="translate(181.654 687.711)" fill="#fff"/>
  </g>
</svg>
