<svg xmlns="http://www.w3.org/2000/svg" width="19.738" height="17.541" viewBox="0 0 19.738 17.541">
  <path id="Icon_awesome-edit" data-name="Icon awesome-edit" d="M13.8,2.855l3.091,3.091a.335.335,0,0,1,0,.473L9.4,13.9l-3.18.353a.666.666,0,0,1-.737-.737l.353-3.18,7.484-7.484A.335.335,0,0,1,13.8,2.855Zm5.551-.785L17.675.4a1.34,1.34,0,0,0-1.892,0L14.57,1.611a.335.335,0,0,0,0,.473l3.091,3.091a.335.335,0,0,0,.473,0l1.213-1.213a1.34,1.34,0,0,0,0-1.892Zm-6.189,9.8v3.488H2.193V4.39h7.875a.421.421,0,0,0,.291-.12L11.73,2.9a.411.411,0,0,0-.291-.7H1.645A1.645,1.645,0,0,0,0,3.842V15.9a1.645,1.645,0,0,0,1.645,1.645H13.707A1.645,1.645,0,0,0,15.352,15.9V10.5a.412.412,0,0,0-.7-.291l-1.371,1.371A.421.421,0,0,0,13.159,11.867Z" transform="translate(0 -0.007)" fill="#0683ff"/>
</svg>
