<svg xmlns="http://www.w3.org/2000/svg" width="14.92" height="13.293" viewBox="0 0 14.92 13.293">
  <g id="Group_1" data-name="Group 1" transform="translate(-151.491 -18.582)">
    <path id="Path_813" data-name="Path 813" d="M137.569,14.846c-1.113-.012-2.35-.079-2.388-1.458V9.637c-.006-.414-2.493-.328-2.466.022v1.77c-.069,1.187.415,3.064-1.173,3.387-1.287.057-3.4.389-3.442-1.459.01-1.517-.018-3.033.011-4.549a.581.581,0,0,1,1.152-.04c.033,1.6,0,3.139.014,4.725.006.166.1.189.189.19q.966.006,1.935,0a.169.169,0,0,0,.158-.173c.005-1.16,0-2.6,0-3.78a1.337,1.337,0,0,1,1.211-1.459c1.326,0,3.579-.268,3.548,1.506.005,1.233,0,2.5.005,3.736.005.048.033.18.284.157h1.877c.247,0,.287-.04.287-.283V8.9a.6.6,0,1,1,1.187.018s0,.958,0,1.277c.023,3.991.374,4.675-2.388,4.646" transform="translate(25 17)" fill="rgba(17,29,33,0.9)"/>
    <path id="Path_814" data-name="Path 814" d="M127.12,8.8a.635.635,0,0,1-.424-1.1q1.818-1.66,3.639-3.317l2.508-2.288a1.587,1.587,0,0,1,2.25-.076L141,7.488c.48.3.61.973.025,1.236a.691.691,0,0,1-.775-.133L134.273,3.06a.461.461,0,0,0-.717,0l-5.987,5.543a.65.65,0,0,1-.449.188" transform="translate(25 17)" fill="rgba(17,29,33,0.9)"/>
  </g>
</svg>
