<svg xmlns="http://www.w3.org/2000/svg" xmlns:xlink="http://www.w3.org/1999/xlink" width="1869" height="16.954" viewBox="0 0 1869 16.954">
  <defs>
    <clipPath id="clip-path">
      <rect id="Rectangle_451" data-name="Rectangle 451" width="1869" height="16.954" transform="translate(0 0)" fill="rgba(17,29,33,0.9)"/>
    </clipPath>
  </defs>
  <g id="Mask_Group_1101" data-name="Mask Group 1101" transform="translate(0 0)" clip-path="url(#clip-path)">
    <path id="Path_807" data-name="Path 807" d="M374.435,15.5q-1.359-1.388-2.736-2.759c-.4-.4-1.232-.509-1.094-1.064a.158.158,0,0,0-.023-.127c-.337-.343-.677-.682-1.021-1.026a5.758,5.758,0,0,1-9.284-4.409V5.861a5.739,5.739,0,1,1,10.244,3.706c.334.333.669.671,1.007,1a.153.153,0,0,0,.124.027c.552-.138.587.65.991,1.134a24.108,24.108,0,0,0,2.819,2.777c.333.3.993-.015,1,.813,0,.369-.882,1.212-1.276,1.208-.674-.007-.436-.707-.752-1.03M370.567,6a4.547,4.547,0,1,0-4.542,4.561A4.548,4.548,0,0,0,370.567,6" transform="translate(-0.349)" fill="rgba(17,29,33,0.9)"/>
    <path id="Path_808" data-name="Path 808" d="M8.461,16.954a1,1,0,0,1-.706-.293L.293,9.191A1,1,0,0,1,0,8.484a1.037,1.037,0,0,1,.293-.722L7.754.293A1,1,0,0,1,9.167,1.707L2.4,8.476l6.762,6.771a1,1,0,0,1-.706,1.707" fill="rgba(17,29,33,0.9)"/>
    <path id="Path_809" data-name="Path 809" d="M44.784,16.954a1,1,0,0,1-.706-1.707L50.84,8.476,44.078,1.707A1,1,0,1,1,45.49.293l7.462,7.469a1,1,0,0,1,.293.707,1.037,1.037,0,0,1-.293.722l-7.462,7.47a1,1,0,0,1-.706.293" transform="translate(-0.042)" fill="rgba(17,29,33,0.9)"/>
    <path id="Path_810" data-name="Path 810" d="M1870.807,3.188a1.65,1.65,0,1,1-1.649-1.651,1.65,1.65,0,0,1,1.649,1.651" transform="translate(-1.807)" fill="rgba(17,29,33,0.9)"/>
    <path id="Path_811" data-name="Path 811" d="M1870.807,8.4a1.65,1.65,0,1,1-1.649-1.651,1.65,1.65,0,0,1,1.649,1.651" transform="translate(-1.807)" fill="rgba(17,29,33,0.9)"/>
    <path id="Path_812" data-name="Path 812" d="M1870.807,13.619a1.65,1.65,0,1,1-1.649-1.651,1.65,1.65,0,0,1,1.649,1.651" transform="translate(-1.807)" fill="rgba(17,29,33,0.9)"/>
    <path id="Path_813" data-name="Path 813" d="M137.56,14.846c-1.112-.012-2.348-.079-2.386-1.458V9.637c-.006-.414-2.491-.328-2.464.022v1.77c-.069,1.187.415,3.064-1.172,3.387-1.286.057-3.4.389-3.439-1.459.01-1.517-.018-3.033.011-4.549a.58.58,0,0,1,1.151-.04c.033,1.6,0,3.139.014,4.725.006.166.1.189.189.19q.965.006,1.933,0a.169.169,0,0,0,.158-.173c.005-1.16,0-2.6,0-3.78a1.336,1.336,0,0,1,1.21-1.459c1.325,0,3.576-.268,3.545,1.506,0,1.233,0,2.5,0,3.736.005.048.033.18.284.157h1.875c.247,0,.287-.04.287-.283V8.9a.6.6,0,1,1,1.186.018s0,.958,0,1.277c.023,3.991.374,4.675-2.386,4.646" transform="translate(-0.124)" fill="rgba(17,29,33,0.9)"/>
    <path id="Path_814" data-name="Path 814" d="M127.119,8.8a.635.635,0,0,1-.424-1.1q1.816-1.66,3.635-3.317l2.506-2.288a1.584,1.584,0,0,1,2.248-.076l5.9,5.475c.48.3.609.973.025,1.236a.69.69,0,0,1-.774-.133L134.265,3.06a.461.461,0,0,0-.716,0l-5.981,5.543a.649.649,0,0,1-.449.188" transform="translate(-0.122)" fill="rgba(17,29,33,0.9)"/>
    <path id="Path_815" data-name="Path 815" d="M96.237,3.02a7.648,7.648,0,0,0-10.047-.27c-.09-.777.334-2.035-.615-2.365L85.244.37l-.081.013c-1.112.4-.467,2.226-.628,3.17.031.684-.221,1.746.682,1.949A38.409,38.409,0,0,0,88.9,6.656a.814.814,0,0,0,.751-.687.806.806,0,0,0-.522-.9c-.753-.266-1.476-.5-2.226-.748a6.1,6.1,0,0,1,7.747-.6A6.166,6.166,0,0,1,96.2,12.2C92.583,17.542,84.089,14.172,85.1,7.8a.848.848,0,0,0-.674-1.044.815.815,0,0,0-.95.7A7.686,7.686,0,0,0,89.242,16.2C96.8,18.2,102.211,8.242,96.237,3.02" transform="translate(-0.081)" fill="rgba(17,29,33,0.9)"/>
  </g>
</svg>
