<svg xmlns="http://www.w3.org/2000/svg" width="15.434" height="16.094" viewBox="0 0 15.434 16.094">
  <path id="Path_824" data-name="Path 824" d="M96.249,3.02a7.661,7.661,0,0,0-10.057-.27c-.09-.777.334-2.035-.616-2.365L85.246.37l-.081.013c-1.113.4-.467,2.226-.629,3.17.031.684-.221,1.746.683,1.949A38.474,38.474,0,0,0,88.9,6.656a.814.814,0,0,0,.752-.687.805.805,0,0,0-.523-.9c-.754-.266-1.477-.5-2.228-.748A6.13,6.13,0,0,1,96.21,12.2c-3.618,5.346-12.12,1.976-11.1-4.4a.848.848,0,0,0-.675-1.044.816.816,0,0,0-.951.7A7.686,7.686,0,0,0,89.248,16.2c7.562,1.994,12.981-7.962,7-13.184" transform="translate(-83.369 -0.37)" fill="rgba(17,29,33,0.9)"/>
</svg>
