<svg xmlns="http://www.w3.org/2000/svg" width="16.202" height="16.254" viewBox="0 0 16.202 16.254">
  <path id="Path_817" data-name="Path 817" d="M374.449,15.5q-1.361-1.388-2.739-2.759c-.4-.4-1.233-.509-1.1-1.064a.158.158,0,0,0-.023-.127c-.337-.343-.678-.682-1.022-1.026a5.764,5.764,0,0,1-9.293-4.409V5.861a5.742,5.742,0,1,1,10.254,3.706c.334.333.67.671,1.008,1a.153.153,0,0,0,.124.027c.553-.138.588.65.992,1.134a24.121,24.121,0,0,0,2.822,2.777c.333.3.994-.015,1,.813,0,.369-.883,1.212-1.277,1.208-.675-.007-.436-.707-.753-1.03M370.577,6a4.551,4.551,0,1,0-4.546,4.561A4.55,4.55,0,0,0,370.577,6" transform="translate(-360.277 -0.276)" fill="#44444f"/>
</svg>
