<svg id="Send_Icon" data-name="Send Icon" xmlns="http://www.w3.org/2000/svg" width="19.588" height="18.998" viewBox="0 0 19.588 18.998">
  <path id="Fill_355" data-name="Fill 355" d="M12.65,19a.822.822,0,0,1-.577-.229L.239,7.289a.776.776,0,0,1-.218-.741.8.8,0,0,1,.531-.57L18.509.042A.855.855,0,0,1,18.773,0a.821.821,0,0,1,.577.231.778.778,0,0,1,.2.815L13.423,18.464a.809.809,0,0,1-.588.515A.989.989,0,0,1,12.65,19ZM17.016,3.335,7.743,12.328,12.3,16.749ZM16.151,2.5,2.32,7.068l4.558,4.421Z" transform="translate(0 0)" fill="#0683ff"/>
</svg>
