<svg xmlns="http://www.w3.org/2000/svg" width="23" height="23" viewBox="0 0 23 23">
  <path id="Shape" d="M10.822,23h-.179a2.3,2.3,0,0,1-2.178-1.972c-.008-.052-.014-.11-.021-.178-.015-.159-.019-.2-.022-.215a.768.768,0,0,0-1.2-.5l-.894-1.245a2.3,2.3,0,0,1,3.611,1.5c.012.077.022.181.036.309.008.083.01.1.011.113a.771.771,0,0,0,.726.658h1.584L12.358,23H10.822Zm1.47-1.533a.771.771,0,0,0,.726-.658l1.518.218A2.3,2.3,0,0,1,12.358,23Zm.726-.658c0-.012,0-.03.012-.113l1.526.153c-.007.068-.012.126-.021.178Zm.012-.113c.012-.128.022-.232.036-.31l1.512.248c0,.017-.007.057-.022.215Zm3.059-.313c-.042-.031-.085-.068-.136-.109h0l0,0-.167-.135a.768.768,0,0,0-1.2.5l-1.512-.248a2.3,2.3,0,0,1,3.611-1.495c.063.045.142.11.24.19h0l0,0,.088.072a.769.769,0,0,0,.978-.048l1.036,1.129a2.3,2.3,0,0,1-2.934.146ZM3.976,20.236c-.039-.036-.08-.077-.128-.126l-.959-.958-.126-.128a2.3,2.3,0,0,1-.146-2.935c.033-.041.069-.087.113-.139v0h0c.1-.121.122-.151.132-.165a.767.767,0,0,0-.5-1.2c-.016,0-.054-.007-.2-.021H2.151c-.068-.008-.126-.012-.178-.021A2.3,2.3,0,0,1,0,12.356c0-.051,0-.11,0-.179V10.822c0-.069,0-.127,0-.179A2.3,2.3,0,0,1,1.973,8.463c.052-.007.11-.012.178-.019.159-.015.2-.021.214-.023a.767.767,0,0,0,.5-1.2l-.124-.153h0L2.73,7.05c-.044-.054-.08-.1-.113-.141a2.3,2.3,0,0,1,.146-2.934c.037-.04.077-.08.126-.128l.959-.959.01-.01c.044-.044.083-.082.119-.116A2.3,2.3,0,0,1,6.91,2.616L5.991,3.845a.765.765,0,0,0-.977.048c-.01.008-.022.021-.081.08l-.01.01h0l-.949.948-.08.081a.766.766,0,0,0-.048.978c.007.01.018.023.072.09.081.1.148.179.193.243a2.3,2.3,0,0,1-1.5,3.611c-.077.012-.182.023-.309.035l-.113.012a.766.766,0,0,0-.657.727c0,.012,0,.029,0,.113v1.355c0,.086,0,.1,0,.115a.764.764,0,0,0,.657.726l.1.011H2.3c.127.012.23.023.309.036a2.3,2.3,0,0,1,1.5,3.61c-.047.065-.113.145-.193.244l0,0h0c-.051.063-.062.076-.068.087a.764.764,0,0,0,.048.977c.008.01.021.022.08.08l.959.96c.059.058.072.072.081.08a.765.765,0,0,0,.977.048c.01-.007.023-.018.088-.072l.486.593-.486-.593h0c.1-.081.179-.147.243-.192l.894,1.245-.167.135h0c-.052.042-.1.079-.139.111l-.919-1.227.919,1.227a2.3,2.3,0,0,1-2.934-.146ZM3.916,16.92l-.669-.547.075.062.06.049Zm-.594-.485-.075-.062-.114-.093.044.036Zm-.591-.487h0Zm-.439-2.919h0Zm15.695,6.079.081-.08,1.083,1.083c-.047.048-.088.09-.128.126Zm.081-.08.959-.96,1.083,1.085-.959.959Zm2.042.124-1.083-1.085,1.085,1.085Zm-1.083-1.085c.059-.058.072-.072.08-.081a.765.765,0,0,0,.048-.976l1.227-.92a2.3,2.3,0,0,1-.146,2.935l-1.129-1.039,1.129,1.039-.124.127Zm.057-1.147.593-.485-.593.485h0l-.023-.028c-.07-.086-.127-.156-.169-.215l1.246-.893-1.246.893a2.3,2.3,0,0,1,1.5-3.61l.248,1.512a.767.767,0,0,0-.5,1.2c.01.014.035.044.134.167v0h0c.042.052.079.1.111.138l-1.227.92C19.149,17,19.136,16.985,19.084,16.92ZM19.677,16.435Zm0,0,0,0ZM19.677,16.435ZM6.44,11.5H7.974A3.527,3.527,0,1,0,11.5,7.974,3.527,3.527,0,0,0,7.974,11.5H6.44A5.06,5.06,0,1,1,11.5,16.56,5.058,5.058,0,0,1,6.44,11.5Zm13.946,1.566c.079-.012.182-.023.309-.036l.113-.012.218,1.518c-.054.008-.11.012-.178.021L20.7,13.03l.153,1.526c-.157.015-.2.019-.214.022Zm.422-.048a.764.764,0,0,0,.657-.726c0-.012,0-.029,0-.115H23c0,.069,0,.127,0,.179l-1.532-.065L23,12.356a2.3,2.3,0,0,1-1.971,2.179Zm.658-.84V10.822H23v1.355Zm0-1.355c0-.084,0-.1,0-.113L23,10.642c0,.052,0,.11,0,.179Zm-.658-.84.218-1.518A2.3,2.3,0,0,1,23,10.642l-1.532.066A.766.766,0,0,0,20.809,9.981ZM20.7,9.97v0h0v0l0,0c-.128-.011-.232-.022-.309-.035a2.3,2.3,0,0,1-1.5-3.611l1.245.894a.767.767,0,0,0,.5,1.2l-.248,1.514.248-1.514c.017,0,.055.008.213.023h0l-.076.754-.009.094.085-.849c.068.007.124.012.178.019l-.218,1.518Zm0,0,.076-.762-.009.094V9.293l.009-.094v0ZM18.891,6.323c.046-.063.112-.144.193-.243v0h0c.051-.063.063-.076.07-.087l1.227.92c-.032.041-.069.087-.112.139-.1.123-.124.153-.135.167ZM19.805,6.67Zm0,0-.217-.177Zm-.719-.592h0Zm.07-.087a.769.769,0,0,0-.048-.978l1.129-1.036L19.107,5.012c-.008-.008-.022-.021-.08-.08l1.083-1.085c.048.048.09.09.126.128a2.3,2.3,0,0,1,.146,2.935ZM18.068,3.973c-.059-.058-.072-.072-.081-.08l1.036-1.13-1.036,1.13a.767.767,0,0,0-.978-.048c-.009.007-.023.018-.085.069h0l0,0c-.1.081-.179.146-.243.193a2.3,2.3,0,0,1-3.611-1.5l1.512-.247a.767.767,0,0,0,1.2.5c.015-.011.045-.035.165-.133h0c.052-.043.1-.08.139-.112a2.3,2.3,0,0,1,2.934.145c.04.037.08.079.128.126l.011.011.948.948L19.027,4.932Zm.495-.5.047-.047Zm.047-.047.542-.542ZM6.323,4.11c-.065-.047-.145-.113-.244-.193-.063-.054-.079-.065-.088-.072L6.91,2.616c.035.026.072.055.112.089l.006,0,.022.019-.486.593L7.05,2.73c.123.1.153.124.167.132L6.323,4.11l.894-1.248a.766.766,0,0,0,1.2-.5c0-.017.007-.055.022-.213.007-.068.012-.126.021-.178A2.3,2.3,0,0,1,10.642,0h.179V1.533h-.113a.768.768,0,0,0-.727.658c0,.012,0,.03-.011.113-.014.127-.023.23-.036.308A2.3,2.3,0,0,1,7.657,4.543,2.273,2.273,0,0,1,6.323,4.11ZM13.03,2.3c-.008-.083-.01-.1-.012-.113l1.518-.218c.008.052.014.11.021.178.015.157.019.2.022.214l-1.512.247C13.052,2.536,13.042,2.432,13.03,2.3Zm-.738-.771h-.113V0h.179l-.066,1.532L12.358,0a2.3,2.3,0,0,1,2.178,1.972l-1.518.218A.768.768,0,0,0,12.292,1.533Zm-1.47,0V0h1.357V1.533Z" fill="#737687"/>
</svg>
