<svg xmlns="http://www.w3.org/2000/svg" width="159.898" height="157.952" viewBox="0 0 159.898 157.952">
  <g id="Icon_feather-shopping-cart" data-name="Icon feather-shopping-cart" transform="translate(1 1)">
    <path id="Path_826" data-name="Path 826" d="M37.271,42.636A12.636,12.636,0,1,1,24.636,30,12.636,12.636,0,0,1,37.271,42.636Z" transform="translate(33.191 99.681)" fill="none" stroke="#92929d" stroke-linecap="round" stroke-linejoin="round" stroke-width="4"/>
    <path id="Path_827" data-name="Path 827" d="M53.771,42.636A12.636,12.636,0,1,1,41.136,30,12.635,12.635,0,0,1,53.771,42.636Z" transform="translate(94.14 99.681)" fill="none" stroke="#92929d" stroke-linecap="round" stroke-linejoin="round" stroke-width="4"/>
    <path id="Path_828" data-name="Path 828" d="M1.5,1.5H29.663L48.533,95.776a14.082,14.082,0,0,0,14.082,11.336h68.437a14.082,14.082,0,0,0,14.082-11.336L156.4,36.7H36.7" fill="none" stroke="#92929d" stroke-linecap="round" stroke-linejoin="round" stroke-width="5"/>
  </g>
</svg>
