<svg xmlns="http://www.w3.org/2000/svg" width="25.51" height="25.04" viewBox="0 0 25.51 25.04">
  <g id="Icon_feather-shopping-cart" data-name="Icon feather-shopping-cart" transform="translate(-0.5 -0.5)">
    <path id="Path_826" data-name="Path 826" d="M15.836,31.918A1.918,1.918,0,1,1,13.918,30,1.918,1.918,0,0,1,15.836,31.918Z" transform="translate(-3.869 -9.045)" fill="none" stroke="#fff" stroke-linecap="round" stroke-linejoin="round" stroke-width="1.5"/>
    <path id="Path_827" data-name="Path 827" d="M32.336,31.918A1.918,1.918,0,1,1,30.418,30,1.918,1.918,0,0,1,32.336,31.918Z" transform="translate(-8.614 -9.045)" fill="none" stroke="#fff" stroke-linecap="round" stroke-linejoin="round" stroke-width="1.5"/>
    <path id="Path_828" data-name="Path 828" d="M1.5,1.5H5.775L8.638,15.809a2.137,2.137,0,0,0,2.137,1.72H21.163a2.137,2.137,0,0,0,2.137-1.72l1.71-8.966H6.843" fill="none" stroke="#fff" stroke-linecap="round" stroke-linejoin="round" stroke-width="2"/>
  </g>
</svg>
