<svg xmlns="http://www.w3.org/2000/svg" xmlns:xlink="http://www.w3.org/1999/xlink" width="145.873" height="62.263" viewBox="0 0 145.873 62.263">
  <defs>
    <clipPath id="clip-path">
      <rect id="Rectangle_415" data-name="Rectangle 415" width="64.696" height="62.263" fill="none"/>
    </clipPath>
  </defs>
  <g id="Group_941" data-name="Group 941" transform="translate(-454.907 -377.334)">
    <g id="Group_939" data-name="Group 939" transform="translate(536.084 377.334)">
      <g id="Group_938" data-name="Group 938" clip-path="url(#clip-path)">
        <path id="Path_726" data-name="Path 726" d="M27.346,25.919c1.8,1.116,3.194,2.731,4.86,4.013.463.438.281.461.787.518a19.16,19.16,0,0,1,5.424,6.781,6.188,6.188,0,0,0,.441.767c1.362,3.058,5.206,8.691.408,10.561-3.279.863-5.877-.858-8.522-2.3a29.124,29.124,0,0,1-3.5-2.329c-4.824-3.865-9.314-8.329-12.286-13.814-1.1-2.145-2.188-4.292-1.454-6.825,2.169-5.477,9.539-.206,12.788,1.749a.75.75,0,0,1,.42.261" fill="#483816"/>
        <path id="Path_727" data-name="Path 727" d="M27.36,43.57c3.633,2.264,7.393,5.225,11.906,4.989L28.288,52.3c-2.265-.481-4.232-1.7-6.277-2.674-5.021-2.39-10.109-4.637-15.1-7.083q1.259-3.552,2.515-7.1c.679-.387,1.277.008,1.827.275,5.378,2.6,10.988,4.732,16.11,7.858" fill="#fedc7c"/>
        <path id="Path_728" data-name="Path 728" d="M6.908,42.54c.477-.312.891-.06,1.315.139Q18.014,47.241,27.8,51.81c.195.091.326.322.487.487-3.264,1.061-6.4,2.507-9.778,3.231-1.8-.2-3.248-1.284-4.843-1.972C10.984,52.4,8.346,51.125,5.69,49.9c-.445-.2-1.063-.317-.947-1.053L6.908,42.54" fill="#f6b500"/>
        <path id="Path_729" data-name="Path 729" d="M4.743,48.847C8.737,50.729,12.735,52.6,16.721,54.5a4.637,4.637,0,0,1,1.789,1.03c-3.038,1.558-6.346,2.384-9.543,3.51A19.341,19.341,0,0,1,2.321,55.91l2.422-7.063" fill="#fedc7c"/>
        <path id="Path_730" data-name="Path 730" d="M27.36,43.57c-5.975-2.72-11.931-5.481-17.937-8.133l2.091-6.6c1.665-.62,2.781.331,3.874,1.351A51.988,51.988,0,0,0,27.36,43.57" fill="#f6b500"/>
        <path id="Path_731" data-name="Path 731" d="M24.892,27.821a27.971,27.971,0,0,0,1.4-2.786c2.5-2.517,5.678-4.452,7.569-7.443,3.064-4.755,1.51-10.321-1.836-14.485-1.252-1.069-.739-1.814.265-2.656.678-.569,1.109-.674,1.695.12a18.086,18.086,0,0,1,3.453,13.6c-.752,5.657-7.1,7.282-10.11,11.45-.378.215-2.436,2.2-2.436,2.2" fill="#c18fee"/>
        <path id="Path_732" data-name="Path 732" d="M62.341,29.651c.062-.069.121-.106.137-.157.242-.82.608-1.728,1.58-1.534.845.169.5,1.166.606,1.813a1.422,1.422,0,0,1-1.22,1.8,4.86,4.86,0,0,1-2.72-.493c-.589-.208-1.109-.691-1.809-.466-.032.087-.11.186-.089.255.311.986,1.013,2.1.117,2.956-.917.877-2.136.351-3.129-.112-1.152-.538-1.744-.434-1.7.978-.125,2.7-1.755,4.36-4.025,2.088-.638-.591-1.136-1.331-1.72-1.983-.634-.709-.153-1.089.349-1.573.694-.67.98-.165,1.335.333a6.629,6.629,0,0,0,1.718,1.882,5.374,5.374,0,0,0,.749-2.229c.756-2.9,1.913-2.206,4.227-1.2-.156-.812-.3-1.472-.406-2.138-.6-4.117,4.272-1.078,6-.223" fill="#ec4d5c"/>
        <path id="Path_733" data-name="Path 733" d="M38.858,38a23.826,23.826,0,0,0-3.04,1.224s2.657-2.2,2.821-2.256c6.794-2.252,6.913-10.06,10.091-15.364.766-1.133,1.227-2.533,2.675-3.072a37.645,37.645,0,0,1,2.937-2.449c.5-.342,1.287-1.36,1.832-.251.446.9,1.671,2.188-.293,2.975a12.115,12.115,0,0,1-3.7,2.994C47.175,26.877,47,36.2,38.858,38" fill="#43ade1"/>
        <path id="Path_734" data-name="Path 734" d="M45.163,10.67c-2.575-3.145-2.488-3.394,1.3-4.485-1.555-2.679-1.612-3.6-.281-4.561a2.784,2.784,0,0,1,4.1.515c-.132.392-.467.235-.72.235-.753,0-1.629-.221-2.1.535-.536.869.2,1.544.642,2.2,1.916,2.861,1.9,2.922-1.479,3.482-.131.429.242.627.432.894,1.45,2.04,1.292,2.563-1.172,3.136-.925.215-1.021.5-.587,1.269a14.474,14.474,0,0,1,.917,2.081.837.837,0,0,1-.3,1.089.929.929,0,0,1-1.142-.13A5.88,5.88,0,0,1,42.573,12.7c-.049-1.449,1.227-1.806,2.59-2.027" fill="#fe8737"/>
        <path id="Path_735" data-name="Path 735" d="M25.354,8.7c-.4-1.09-1.17-2.032-.325-3.072a2.714,2.714,0,0,1,2.583-.746c.407.034.885.036,1.049.483.17.463-.254.732-.525,1.027-.346.377-.99.486-.389,1.333,1.7,2.276.168,3.351-2.253,3.546.779,2.263.468,2.687-1.933,2.728-2.825.048-3.127.529-1.926,3.116.247.531.556,1.033.8,1.563.187.4.634.91.093,1.227-.428.251-.893-.19-1.2-.538-1.928-1.948-3.236-7.05.656-7.432.371-.059,1.156.19.9-.588-.716-2.2.633-2.525,2.461-2.647" fill="#43ade1"/>
        <path id="Path_736" data-name="Path 736" d="M51.4,18.531q-1.213,1.653-2.424,3.305c-1.7.792-3.557.316-5.336.618a11.7,11.7,0,0,0-7.337,4.318c-1.095,1.32-1.874,2.963-3.471,3.838-.21.211-3.066,3.647-3.066,3.647s2.317-4.015,2.435-4.325c4.755-7.54,9.726-12.308,19.2-11.4" fill="#fd8737"/>
        <path id="Path_737" data-name="Path 737" d="M2.321,55.91a41.4,41.4,0,0,1,6.646,3.129L0,62.263C.865,59.892,1.593,57.9,2.321,55.91" fill="#f6b602"/>
        <path id="Path_738" data-name="Path 738" d="M52.182,21.8a8.817,8.817,0,0,1,3.7-2.994c.788.228,1.582.435,2.362.688,2.069.671,2.081.782,1.238,2.8-.279.668-.538.894-1.286.722-1.992-.458-4.007-.819-6.013-1.218" fill="#fd8838"/>
        <path id="Path_739" data-name="Path 739" d="M59.042,56.458a8.389,8.389,0,0,1-2.86,2.637A10.451,10.451,0,0,1,53.424,56.3,9.835,9.835,0,0,1,56.4,53.524a12.33,12.33,0,0,1,2.644,2.934" fill="#fe8838"/>
        <path id="Path_740" data-name="Path 740" d="M52.569,43.5a8.818,8.818,0,0,1-2.764,2.8,10.084,10.084,0,0,1-2.731-2.634c-.071-.5,1.845-2.748,2.438-2.865.414-.082,3.007,2.2,3.057,2.7" fill="#c290ee"/>
        <path id="Path_741" data-name="Path 741" d="M57.039,10.258A11.114,11.114,0,0,1,54.221,13a10.362,10.362,0,0,1-2.837-2.717,10.852,10.852,0,0,1,2.708-2.865,12.27,12.27,0,0,1,2.947,2.844" fill="#44ade1"/>
        <path id="Path_742" data-name="Path 742" d="M62.108,42.517a9.783,9.783,0,0,1-2.828,2.734,9.232,9.232,0,0,1-2.71-2.824A8.751,8.751,0,0,1,59.352,39.7a10.981,10.981,0,0,1,2.756,2.817" fill="#44ade1"/>
        <path id="Path_743" data-name="Path 743" d="M42.954,56.868a13.531,13.531,0,0,1-2.9-2.951A14.307,14.307,0,0,1,42.881,51.1a9.961,9.961,0,0,1,2.856,2.923,16.35,16.35,0,0,1-2.783,2.846" fill="#ec4d5d"/>
        <path id="Path_744" data-name="Path 744" d="M4.319,9.059a12.345,12.345,0,0,1,2.87,2.729,10.157,10.157,0,0,1-2.722,2.834,9.052,9.052,0,0,1-2.82-2.7A9.164,9.164,0,0,1,4.319,9.059" fill="#43ade1"/>
        <path id="Path_745" data-name="Path 745" d="M11.493,21.4A10.554,10.554,0,0,1,8.736,24.2a11.583,11.583,0,0,1-2.915-2.666,9.359,9.359,0,0,1,2.863-2.923A11.748,11.748,0,0,1,11.493,21.4" fill="#fe8737"/>
        <path id="Path_746" data-name="Path 746" d="M19.215,7.1A11.575,11.575,0,0,1,16.3,9.764a9.88,9.88,0,0,1-2.665-2.886,10.5,10.5,0,0,1,2.874-2.686,13.23,13.23,0,0,1,2.709,2.9" fill="#ec4d5d"/>
        <path id="Path_747" data-name="Path 747" d="M15.388,30.192c-1.321-.365-2.421-1.362-3.874-1.351l1.991-5.556c-.272,2.549.962,4.685,1.883,6.907" fill="#f9d87a"/>
        <path id="Path_748" data-name="Path 748" d="M24.369,28.549A11.654,11.654,0,0,1,21.4,31.36a10.828,10.828,0,0,1-2.765-3.013,9.45,9.45,0,0,1,2.957-2.573,10.416,10.416,0,0,1,2.779,2.775" fill="#e94b5a"/>
      </g>
    </g>
    <g id="Group_940" data-name="Group 940" transform="translate(454.907 377.334)">
      <g id="Group_938-2" data-name="Group 938" clip-path="url(#clip-path)">
        <path id="Path_726-2" data-name="Path 726" d="M27.526,25.919c-1.8,1.116-3.194,2.731-4.86,4.013-.463.438-.281.461-.787.518a19.16,19.16,0,0,0-5.424,6.781,6.188,6.188,0,0,1-.441.767c-1.362,3.058-5.206,8.691-.408,10.561,3.279.863,5.877-.858,8.522-2.3a29.123,29.123,0,0,0,3.5-2.329c4.824-3.865,9.314-8.329,12.286-13.814,1.1-2.145,2.188-4.292,1.454-6.825-2.169-5.477-9.539-.206-12.788,1.749a.75.75,0,0,0-.42.261" transform="translate(9.823 0)" fill="#483816"/>
        <path id="Path_727-2" data-name="Path 727" d="M18.814,43.57c-3.633,2.264-7.393,5.225-11.906,4.989L17.886,52.3c2.265-.481,4.232-1.7,6.277-2.674,5.021-2.39,10.109-4.637,15.1-7.083q-1.258-3.552-2.515-7.1c-.679-.387-1.277.008-1.827.275-5.378,2.6-10.988,4.732-16.11,7.858" transform="translate(18.522 0)" fill="#fedc7c"/>
        <path id="Path_728-2" data-name="Path 728" d="M26.109,42.54c-.477-.312-.891-.06-1.315.139Q15,47.241,5.216,51.81c-.195.091-.326.322-.487.487,3.264,1.061,6.4,2.507,9.778,3.231,1.8-.2,3.248-1.284,4.843-1.972,2.683-1.158,5.321-2.431,7.977-3.656.445-.2,1.063-.317.947-1.053L26.109,42.54" transform="translate(31.679 0)" fill="#f6b500"/>
        <path id="Path_729-2" data-name="Path 729" d="M16.088,48.847C12.094,50.729,8.1,52.6,4.11,54.5a4.637,4.637,0,0,0-1.789,1.03c3.038,1.558,6.346,2.384,9.543,3.51A19.341,19.341,0,0,0,18.51,55.91l-2.422-7.063" transform="translate(43.865 0)" fill="#fedc7c"/>
        <path id="Path_730-2" data-name="Path 730" d="M9.423,43.57c5.975-2.72,11.931-5.481,17.937-8.133l-2.091-6.6c-1.665-.62-2.781.331-3.874,1.351A51.988,51.988,0,0,1,9.423,43.57" transform="translate(27.913 0)" fill="#f6b500"/>
        <path id="Path_731-2" data-name="Path 731" d="M37.626,27.821a27.97,27.97,0,0,1-1.4-2.786c-2.5-2.517-5.678-4.452-7.569-7.443-3.064-4.755-1.51-10.321,1.836-14.485,1.252-1.069.739-1.814-.265-2.656-.678-.569-1.109-.674-1.695.12a18.086,18.086,0,0,0-3.453,13.6c.752,5.657,7.1,7.282,10.11,11.45.378.215,2.436,2.2,2.436,2.2" transform="translate(2.177 0)" fill="#c18fee"/>
        <path id="Path_732-2" data-name="Path 732" d="M50.423,29.651c-.062-.069-.121-.106-.137-.157-.242-.82-.608-1.728-1.58-1.534-.845.169-.5,1.166-.606,1.813a1.422,1.422,0,0,0,1.22,1.8,4.86,4.86,0,0,0,2.72-.493c.589-.208,1.109-.691,1.809-.466.032.087.11.186.089.255-.311.986-1.013,2.1-.117,2.956.917.877,2.136.351,3.129-.112,1.152-.538,1.744-.434,1.7.978.125,2.7,1.755,4.36,4.025,2.088.638-.591,1.136-1.331,1.72-1.983.634-.709.153-1.089-.349-1.573-.694-.67-.98-.165-1.335.333a6.629,6.629,0,0,1-1.718,1.882,5.374,5.374,0,0,1-.749-2.229c-.756-2.9-1.913-2.206-4.227-1.2.156-.812.3-1.472.406-2.138.6-4.117-4.272-1.078-6-.223" transform="translate(-48.068 0)" fill="#ec4d5c"/>
        <path id="Path_733-2" data-name="Path 733" d="M53.922,38a23.826,23.826,0,0,1,3.04,1.224s-2.657-2.2-2.821-2.256C47.347,34.714,47.228,26.906,44.05,21.6c-.766-1.133-1.227-2.533-2.675-3.072a37.645,37.645,0,0,0-2.937-2.449c-.5-.342-1.287-1.36-1.832-.251-.446.9-1.671,2.188.293,2.975A12.115,12.115,0,0,0,40.6,21.8c5.007,5.078,5.181,14.4,13.324,16.2" transform="translate(-28.084 0)" fill="#43ade1"/>
        <path id="Path_734-2" data-name="Path 734" d="M47.7,10.67c2.575-3.145,2.488-3.394-1.3-4.485,1.555-2.679,1.612-3.6.281-4.561a2.784,2.784,0,0,0-4.1.515c.132.392.467.235.72.235.753,0,1.629-.221,2.095.535.536.869-.2,1.544-.642,2.2-1.916,2.861-1.9,2.922,1.479,3.482.131.429-.242.627-.432.894-1.45,2.04-1.292,2.563,1.172,3.136.925.215,1.021.5.587,1.269a14.473,14.473,0,0,0-.917,2.081.837.837,0,0,0,.3,1.089.929.929,0,0,0,1.142-.13A5.88,5.88,0,0,0,50.288,12.7c.049-1.449-1.227-1.806-2.59-2.027" transform="translate(-28.165 0)" fill="#fe8737"/>
        <path id="Path_735-2" data-name="Path 735" d="M22.819,8.7c.4-1.09,1.17-2.032.325-3.072a2.714,2.714,0,0,0-2.583-.746c-.407.034-.885.036-1.049.483-.17.463.254.732.525,1.027.346.377.99.486.389,1.333-1.7,2.276-.168,3.351,2.253,3.546-.779,2.263-.468,2.687,1.933,2.728,2.825.048,3.127.529,1.926,3.116-.247.531-.556,1.033-.8,1.563-.187.4-.634.91-.093,1.227.428.251.893-.19,1.2-.538,1.928-1.948,3.236-7.05-.656-7.432-.371-.059-1.156.19-.9-.588.716-2.2-.633-2.525-2.461-2.647" transform="translate(16.523 0)" fill="#43ade1"/>
        <path id="Path_736-2" data-name="Path 736" d="M29.771,18.531q1.213,1.653,2.424,3.3c1.7.792,3.557.316,5.336.618a11.7,11.7,0,0,1,7.337,4.318c1.095,1.32,1.874,2.963,3.471,3.838.21.211,3.066,3.647,3.066,3.647s-2.317-4.015-2.435-4.325c-4.755-7.54-9.726-12.308-19.2-11.4" transform="translate(-16.48 0)" fill="#fd8737"/>
        <path id="Path_737-2" data-name="Path 737" d="M6.646,55.91A41.4,41.4,0,0,0,0,59.039l8.967,3.224C8.1,59.892,7.374,57.9,6.646,55.91" transform="translate(55.729 0)" fill="#f6b602"/>
        <path id="Path_738-2" data-name="Path 738" d="M60.006,21.8a8.817,8.817,0,0,0-3.7-2.994c-.788.228-1.582.435-2.362.688-2.069.671-2.081.782-1.238,2.8.279.668.538.894,1.286.722C55.985,22.559,58,22.2,60.006,21.8" transform="translate(-47.492 0)" fill="#fd8838"/>
        <path id="Path_739-2" data-name="Path 739" d="M53.424,56.458a8.389,8.389,0,0,0,2.86,2.637A10.451,10.451,0,0,0,59.042,56.3a9.835,9.835,0,0,0-2.974-2.777,12.33,12.33,0,0,0-2.644,2.934" transform="translate(-47.77 0)" fill="#fe8838"/>
        <path id="Path_740-2" data-name="Path 740" d="M47.073,43.5a8.818,8.818,0,0,0,2.764,2.8,10.084,10.084,0,0,0,2.731-2.634c.071-.5-1.845-2.748-2.438-2.865-.414-.082-3.007,2.2-3.057,2.7" transform="translate(-34.946 0)" fill="#c290ee"/>
        <path id="Path_741-2" data-name="Path 741" d="M51.384,10.258A11.114,11.114,0,0,0,54.2,13a10.362,10.362,0,0,0,2.837-2.717,10.851,10.851,0,0,0-2.708-2.865,12.27,12.27,0,0,0-2.947,2.844" transform="translate(-43.727 0)" fill="#44ade1"/>
        <path id="Path_742-2" data-name="Path 742" d="M56.57,42.517A9.783,9.783,0,0,0,59.4,45.251a9.232,9.232,0,0,0,2.71-2.824A8.751,8.751,0,0,0,59.326,39.7a10.981,10.981,0,0,0-2.756,2.817" transform="translate(-53.982 0)" fill="#44ade1"/>
        <path id="Path_743-2" data-name="Path 743" d="M42.84,56.868a13.531,13.531,0,0,0,2.9-2.951A14.307,14.307,0,0,0,42.913,51.1a9.961,9.961,0,0,0-2.856,2.923,16.35,16.35,0,0,0,2.783,2.846" transform="translate(-21.098 0)" fill="#ec4d5d"/>
        <path id="Path_744-2" data-name="Path 744" d="M4.517,9.059a12.345,12.345,0,0,0-2.87,2.729,10.157,10.157,0,0,0,2.722,2.834,9.052,9.052,0,0,0,2.82-2.7A9.164,9.164,0,0,0,4.517,9.059" transform="translate(55.859 0)" fill="#43ade1"/>
        <path id="Path_745-2" data-name="Path 745" d="M5.821,21.395a10.554,10.554,0,0,0,2.757,2.8,11.583,11.583,0,0,0,2.915-2.666A9.359,9.359,0,0,0,8.63,18.611a11.748,11.748,0,0,0-2.809,2.784" transform="translate(47.382 0)" fill="#fe8737"/>
        <path id="Path_746-2" data-name="Path 746" d="M13.631,7.1a11.575,11.575,0,0,0,2.918,2.668,9.88,9.88,0,0,0,2.665-2.886A10.5,10.5,0,0,0,16.34,4.192a13.23,13.23,0,0,0-2.709,2.9" transform="translate(31.85 0)" fill="#ec4d5d"/>
        <path id="Path_747-2" data-name="Path 747" d="M11.514,30.192c1.321-.365,2.421-1.362,3.874-1.351L13.4,23.285c.272,2.549-.962,4.685-1.883,6.907" transform="translate(37.794 0)" fill="#f9d87a"/>
        <path id="Path_748-2" data-name="Path 748" d="M18.632,28.549A11.654,11.654,0,0,0,21.6,31.36a10.828,10.828,0,0,0,2.765-3.013,9.45,9.45,0,0,0-2.957-2.573,10.416,10.416,0,0,0-2.779,2.775" transform="translate(21.694 0)" fill="#e94b5a"/>
      </g>
    </g>
  </g>
</svg>
