<svg id="Group_1107" data-name="Group 1107" xmlns="http://www.w3.org/2000/svg" width="19.608" height="18.884" viewBox="0 0 19.608 18.884">
  <path id="Path" d="M6.621,1.646a4.442,4.442,0,0,0-.885,1.3l-.023.052c-.082.182-.134.3-.153.336a1.889,1.889,0,0,1-.649.775,1.9,1.9,0,0,1-.973.275c-.043,0-.117,0-.218,0H3.692a2.419,2.419,0,0,0,0,4.839H15.916a2.419,2.419,0,0,0,0-4.839h-.027c-.1,0-.175,0-.218,0a1.9,1.9,0,0,1-.973-.275,1.889,1.889,0,0,1-.649-.775c-.019-.038-.071-.154-.153-.336l-.023-.052a4.444,4.444,0,0,0-.885-1.3V0a5.755,5.755,0,0,1,2.046,2.421l.115.256.036.078,0,.005a.679.679,0,0,0,.2.279.68.68,0,0,0,.337.071h.189a3.693,3.693,0,0,1,0,7.385H3.692a3.693,3.693,0,0,1,0-7.385h.189a.68.68,0,0,0,.337-.071.679.679,0,0,0,.2-.279l0-.005.036-.078.115-.256A5.755,5.755,0,0,1,6.621,0Z" transform="translate(0 8.39)" fill="#737687"/>
  <path id="Shape" d="M3.648,11.117V2.541L.929,5.441,0,4.57,3.819.5l.465.435h0L3.819.5,4.285,0l.464.5L8.568,4.57l-.928.871-2.719-2.9v8.576a.637.637,0,1,1-1.273,0Z" transform="translate(5.393)" fill="#737687"/>
</svg>
